<?xml version="1.0" encoding="UTF-8" standalone="no"?>
<!-- Created with Inkscape (http://www.inkscape.org/) -->

<svg
   xmlns:dc="http://purl.org/dc/elements/1.1/"
   xmlns:cc="http://creativecommons.org/ns#"
   xmlns:rdf="http://www.w3.org/1999/02/22-rdf-syntax-ns#"
   xmlns:svg="http://www.w3.org/2000/svg"
   xmlns="http://www.w3.org/2000/svg"
   xmlns:sodipodi="http://sodipodi.sourceforge.net/DTD/sodipodi-0.dtd"
   xmlns:inkscape="http://www.inkscape.org/namespaces/inkscape"
   width="200"
   height="40"
   id="svg2"
   version="1.1"
   inkscape:version="0.48.4 r9939"
   sodipodi:docname="temp-logo.svg">
  <defs
     id="defs4" />
  <sodipodi:namedview
     id="base"
     pagecolor="#ffffff"
     bordercolor="#666666"
     borderopacity="1.0"
     inkscape:pageopacity="0.0"
     inkscape:pageshadow="2"
     inkscape:zoom="1.4"
     inkscape:cx="175"
     inkscape:cy="-22.016079"
     inkscape:document-units="px"
     inkscape:current-layer="text3004"
     showgrid="false"
     inkscape:window-width="1301"
     inkscape:window-height="744"
     inkscape:window-x="65"
     inkscape:window-y="24"
     inkscape:window-maximized="1" />
  <metadata
     id="metadata7">
    <rdf:RDF>
      <cc:Work
         rdf:about="">
        <dc:format>image/svg+xml</dc:format>
        <dc:type
           rdf:resource="http://purl.org/dc/dcmitype/StillImage" />
        <dc:title></dc:title>
      </cc:Work>
    </rdf:RDF>
  </metadata>
  <g
     inkscape:label="Layer 1"
     inkscape:groupmode="layer"
     id="layer1"
     transform="translate(0,-1012.3622)">
    <g
       style="font-size:40px;font-style:normal;font-variant:normal;font-weight:normal;font-stretch:normal;line-height:125%;letter-spacing:0px;word-spacing:0px;fill:#000000;fill-opacity:1;stroke:none;font-family:Code New Roman;-inkscape-font-specification:Code New Roman"
       id="text3004">
      <g
         id="g3023"
         transform="matrix(0.97727793,0,0,0.99999995,-129.7416,769.63472)">
        <path
           id="path3009"
           style="font-weight:500;font-family:Ubuntu;-inkscape-font-specification:Ubuntu Medium"
           d="m 176.18318,250.86533 0,4.36 -8.52,0 0,23.36 -5.08,0 0,-23.36 -8.52,0 0,-4.36 22.12,0"
           inkscape:connector-curvature="0" />
        <path
           id="path3011"
           style="font-weight:500;font-family:Ubuntu;-inkscape-font-specification:Ubuntu Medium"
           d="m 196.12256,278.58533 c -0.37336,-1.09334 -0.76002,-2.17333 -1.16,-3.24 -0.40002,-1.06667 -0.78669,-2.16 -1.16,-3.28 l -11.68,0 c -0.37334,1.12 -0.76001,2.22667 -1.16,3.32 -0.37334,1.06667 -0.74668,2.13333 -1.12,3.2 l -5.24,0 c 1.04,-2.96 2.02666,-5.69333 2.96,-8.2 0.93333,-2.50666 1.83999,-4.87999 2.72,-7.12 0.90666,-2.23999 1.79999,-4.37332 2.68,-6.4 0.87999,-2.02665 1.78665,-4.02664 2.72,-6 l 4.76,0 c 0.93331,1.97336 1.83998,3.97335 2.72,6 0.87998,2.02668 1.75998,4.16001 2.64,6.4 0.90664,2.24001 1.82664,4.61334 2.76,7.12 0.95997,2.50667 1.95997,5.24 3,8.2 l -5.44,0 m -8.16,-22.36 c -0.61335,1.41335 -1.32001,3.13335 -2.12,5.16 -0.77335,2.02668 -1.58668,4.22668 -2.44,6.6 l 9.12,0 c -0.85335,-2.37332 -1.68002,-4.58665 -2.48,-6.64 -0.80002,-2.05332 -1.49335,-3.75998 -2.08,-5.12"
           inkscape:connector-curvature="0" />
        <path
           id="path3013"
           style="font-weight:500;font-family:Ubuntu;-inkscape-font-specification:Ubuntu Medium"
           d="m 223.74631,278.58533 c -0.90669,-1.52 -1.92002,-3.14667 -3.04,-4.88 -1.12002,-1.76 -2.28002,-3.51999 -3.48,-5.28 -1.20002,-1.78666 -2.42668,-3.50666 -3.68,-5.16 -1.22668,-1.67999 -2.40001,-3.18665 -3.52,-4.52 l 0,19.84 -4.96,0 0,-27.72 4.12,0 c 1.06666,1.12002 2.21332,2.45336 3.44,4 1.22665,1.52002 2.45332,3.10668 3.68,4.76 1.25331,1.65335 2.45331,3.32001 3.6,5 1.17331,1.65334 2.21331,3.20001 3.12,4.64 l 0,-18.4 5,0 0,27.72 -4.28,0"
           inkscape:connector-curvature="0" />
        <path
           id="path3015"
           style="font-weight:500;font-family:Ubuntu;-inkscape-font-specification:Ubuntu Medium"
           d="m 242.51568,250.58533 c 4.02665,3e-5 7.10665,0.73336 9.24,2.2 2.15998,1.46669 3.23998,3.76002 3.24,6.88 -2e-5,1.62668 -0.29335,3.02668 -0.88,4.2 -0.56002,1.14668 -1.38669,2.09334 -2.48,2.84 -1.09335,0.72001 -2.42668,1.25334 -4,1.6 -1.57335,0.34667 -3.37334,0.52001 -5.4,0.52 l -2.52,0 0,9.76 -5.04,0 0,-27.32 c 1.17333,-0.26664 2.46666,-0.43998 3.88,-0.52 1.43999,-0.10664 2.75999,-0.15997 3.96,-0.16 m 0.36,4.36 c -1.28001,2e-5 -2.33334,0.04 -3.16,0.12 l 0,9.44 2.44,0 c 2.42666,10e-6 4.29332,-0.33332 5.6,-1 1.30665,-0.69332 1.95998,-1.98665 1.96,-3.88 -2e-5,-0.90665 -0.17335,-1.66665 -0.52,-2.28 -0.34668,-0.61331 -0.82668,-1.09331 -1.44,-1.44 -0.61335,-0.34665 -1.34668,-0.58665 -2.2,-0.72 -0.82668,-0.15998 -1.72001,-0.23998 -2.68,-0.24"
           inkscape:connector-curvature="0" />
        <path
           id="path3017"
           style="font-weight:500;font-family:Ubuntu;-inkscape-font-specification:Ubuntu Medium"
           d="m 270.27756,279.18533 c -1.89335,0 -3.52001,-0.26667 -4.88,-0.8 -1.36001,-0.56 -2.49334,-1.33333 -3.4,-2.32 -0.88001,-0.98667 -1.53334,-2.14666 -1.96,-3.48 -0.42667,-1.33333 -0.64001,-2.79999 -0.64,-4.4 l 0,-17.32 5.08,0 0,16.84 c -10e-6,1.25334 0.13332,2.33334 0.4,3.24 0.29332,0.88 0.69332,1.6 1.2,2.16 0.53332,0.56 1.14665,0.97333 1.84,1.24 0.71999,0.26667 1.51998,0.4 2.4,0.4 0.87998,0 1.67998,-0.13333 2.4,-0.4 0.71998,-0.26667 1.33331,-0.68 1.84,-1.24 0.53331,-0.56 0.93331,-1.28 1.2,-2.16 0.29331,-0.90666 0.43998,-1.98666 0.44,-3.24 l 0,-16.84 5.08,0 0,17.32 c -3e-5,1.60001 -0.22669,3.06667 -0.68,4.4 -0.42669,1.33334 -1.09336,2.49333 -2,3.48 -0.88002,0.98667 -2.01336,1.76 -3.4,2.32 -1.38669,0.53333 -3.02669,0.8 -4.92,0.8"
           inkscape:connector-curvature="0" />
        <path
           id="path3019"
           style="font-weight:500;font-family:Ubuntu;-inkscape-font-specification:Ubuntu Medium"
           d="m 292.76256,274.42533 c 0.29332,0.0267 0.67999,0.0533 1.16,0.08 0.47999,0 1.13332,0 1.96,0 3.38665,0 5.90665,-0.85333 7.56,-2.56 1.67998,-1.73333 2.51998,-4.14666 2.52,-7.24 -2e-5,-3.14665 -0.81336,-5.55998 -2.44,-7.24 -1.62669,-1.67998 -4.14668,-2.51998 -7.56,-2.52 -1.49335,2e-5 -2.56001,0.04 -3.2,0.12 l 0,19.36 m 18.48,-9.72 c -3e-5,2.40001 -0.37336,4.49334 -1.12,6.28 -0.74669,1.76 -1.81336,3.24 -3.2,4.44 -1.36002,1.17333 -3.01336,2.05333 -4.96,2.64 -1.92002,0.56 -4.05335,0.84 -6.4,0.84 -1.12001,0 -2.38668,-0.0533 -3.8,-0.16 -1.41334,-0.08 -2.76001,-0.26667 -4.04,-0.56 l 0,-26.92 c 1.27999,-0.29331 2.63999,-0.47998 4.08,-0.56 1.43999,-0.08 2.71999,-0.11997 3.84,-0.12 2.31998,3e-5 4.43998,0.28002 6.36,0.84 1.91998,0.53336 3.55998,1.38669 4.92,2.56 1.38664,1.14669 2.45331,2.61335 3.2,4.4 0.74664,1.76002 1.11997,3.86668 1.12,6.32"
           inkscape:connector-curvature="0" />
      </g>
    </g>
  </g>
</svg>
